<svg xmlns="http://www.w3.org/2000/svg" viewBox="0 0 64 64" role="img" aria-label="ChalkPad favicon">
  <defs>
    <linearGradient id="bg" x1="0" x2="1" y1="0" y2="1">
      <stop offset="0%" stop-color="#1a1324"/>
      <stop offset="100%" stop-color="#09070c"/>
    </linearGradient>
    <linearGradient id="gold" x1="0" x2="1" y1="0" y2="1">
      <stop offset="0%" stop-color="#e7c98a"/>
      <stop offset="100%" stop-color="#b8873c"/>
    </linearGradient>
  </defs>
  <rect width="64" height="64" rx="14" fill="url(#bg)"/>
  <rect x="7" y="7" width="50" height="50" rx="12" fill="none" stroke="#3a2a4d"/>
  <path d="M18 44V20h7.5c5.4 0 9.1 3.4 9.1 7.7 0 4.2-3.7 7.7-9.1 7.7H18zm7.8-10.4c2.6 0 4.3-1.7 4.3-3.9 0-2.2-1.7-3.9-4.3-3.9H21.4v7.8h4.4zm11.6 10.4V20h4.1v24h-4.1zm11.9-24h4.1v24h-4.1z" fill="url(#gold)"/>
</svg>
